<svg width="117" height="61" viewBox="0 0 117 61" fill="none" xmlns="http://www.w3.org/2000/svg">
<path d="M5.0468 30.9028L25.6175 27.2458C26.2942 27.1255 26.6506 26.374 26.3156 25.7739L15.5274 6.44499C15.2431 5.9356 14.5849 5.77671 14.0995 6.10031L12.4453 7.20313C12.1671 7.3886 12 7.70083 12 8.03518V9.55093C12 9.83657 11.8779 10.1086 11.6644 10.2983L7.83564 13.7017C7.62215 13.8914 7.5 14.1634 7.5 14.4491V17.1219C7.5 17.3655 7.41104 17.6008 7.24984 17.7835L0.589596 25.3318C0.253565 25.7126 0.256379 26.2849 0.59614 26.6624L4.12847 30.5872C4.35954 30.8439 4.70673 30.9632 5.0468 30.9028Z" fill="black"/>
<path d="M44.7301 53.4768L21.1967 7.85071C20.8672 7.21192 21.2991 6.44451 22.0162 6.39471L55.3199 4.08195C55.9372 4.03908 56.4449 4.56147 56.3844 5.17729L51.0886 59.0977C51.0383 59.6097 50.6078 60 50.0934 60H42.8685C42.0698 60 41.5934 59.1099 42.0365 58.4453L44.6734 54.4899C44.875 54.1875 44.8967 53.7997 44.7301 53.4768Z" fill="black"/>
<path d="M30.9579 52.3736L31.276 53.3281C31.4233 53.77 31.6715 54.1715 32.0008 54.5008L32.1375 54.6375C32.5837 55.0837 33.3266 55.0101 33.6766 54.4851L33.8321 54.2519C33.9416 54.0877 34 53.8946 34 53.6972V50.693C34 50.2762 34.2586 49.903 34.6489 49.7567L36.9353 48.8993C37.4999 48.6875 37.7501 48.028 37.468 47.495L34.2652 41.4453C33.9154 40.7847 32.9909 40.7274 32.5622 41.3398L30.8435 43.7949C30.2945 44.5793 30 45.5135 30 46.471C30 48.4772 30.3234 50.4703 30.9579 52.3736Z" fill="black"/>
<path d="M59.4234 3.78818L56.0888 38.0861C56.0386 38.603 56.3923 39.0723 56.903 39.1663L65.5 40.75L73.901 42.2976C74.4872 42.4055 75.0371 41.9799 75.0796 41.3853L77.9124 1.72697C77.9576 1.09417 77.4097 0.579773 76.781 0.664732L60.2848 2.89395C59.8249 2.95609 59.4683 3.32636 59.4234 3.78818Z" fill="black"/>
<path d="M102.862 27.2347L83.29 60.507C83.1103 60.8125 82.7824 61 82.4281 61H71.5C70.9477 61 70.5 60.5523 70.5 60V59.4424C70.5 59.1606 70.6189 58.892 70.8273 58.7024L75.7049 54.2683C75.8944 54.096 76.0105 53.8576 76.0295 53.6022L79.8571 1.929C79.9171 1.11956 80.8655 0.714978 81.4913 1.23191L102.637 18.7C102.867 18.89 103 19.1727 103 19.471V26.7277C103 26.906 102.952 27.081 102.862 27.2347Z" fill="black"/>
<path d="M104.519 29.5815L95.9177 43.4526C95.673 43.8473 95.7321 44.3584 96.0605 44.6868L105.42 54.0465C105.473 54.0994 105.519 54.1592 105.556 54.2243C105.797 54.6455 105.635 55.1827 105.201 55.3997L104.553 55.7236C104.214 55.893 104 56.2393 104 56.618V57.75V58.5858C104 58.851 104.105 59.1054 104.293 59.2929L105.707 60.7071C105.895 60.8946 106.149 61 106.414 61H112.465C112.799 61 113.111 60.8329 113.297 60.5547L116.356 55.9657C116.776 55.336 117 54.5962 117 53.8394C117 53.2863 116.88 52.7399 116.649 52.2374L106.278 29.6906C105.945 28.9664 104.939 28.904 104.519 29.5815Z" fill="black"/>
</svg>
