<svg id="visual" viewBox="0 0 900 600" width="900" height="600" xmlns="http://www.w3.org/2000/svg" xmlns:xlink="http://www.w3.org/1999/xlink" version="1.1"><rect x="0" y="0" width="900" height="600" fill="#ffffff"></rect><path d="M0 371L37.5 380.2C75 389.3 150 407.7 225 419.2C300 430.7 375 435.3 450 435C525 434.7 600 429.3 675 418.5C750 407.7 825 391.3 862.5 383.2L900 375L900 601L862.5 601C825 601 750 601 675 601C600 601 525 601 450 601C375 601 300 601 225 601C150 601 75 601 37.5 601L0 601Z" fill="#ff5200" stroke-linecap="round" stroke-linejoin="miter"></path></svg>